<svg xmlns="http://www.w3.org/2000/svg" xmlns:xlink="http://www.w3.org/1999/xlink" width="120" height="120" viewBox="0 0 120 120"><defs><style>.a{fill:rgba(255,255,255,0);}.b{fill:#002b59;}.c{fill:url(#a);}.d{fill:url(#b);}.e{fill:url(#c);}</style><linearGradient id="a" x1="0.05" y1="1.208" x2="0.886" y2="0.047" gradientUnits="objectBoundingBox"><stop offset="0" stop-color="#00dcff"/><stop offset="1" stop-color="#636efe"/></linearGradient><linearGradient id="b" x1="0.104" y1="2.584" x2="0.902" y2="-1.497" xlink:href="#a"/><linearGradient id="c" x1="-0.054" y1="0.584" x2="0.885" y2="0.079" xlink:href="#a"/></defs><rect class="a" width="120" height="120"/><g transform="translate(11.433 1.759)"><path class="b" d="M-342.355,310.062a1.211,1.211,0,0,0,1.205,1.206,1.211,1.211,0,0,0,1.205-1.206,3.459,3.459,0,0,1,3.44-3.438,1.211,1.211,0,0,0,1.2-1.206,1.207,1.207,0,0,0-.75-1.116,1.207,1.207,0,0,0,.75-1.116,1.211,1.211,0,0,0-1.2-1.206,3.459,3.459,0,0,1-3.44-3.438,1.211,1.211,0,0,0-1.205-1.206,1.211,1.211,0,0,0-1.205,1.206,5.877,5.877,0,0,0,4.834,5.767A5.877,5.877,0,0,0-342.355,310.062Z" transform="translate(433.354 -227.615)"/><path class="b" d="M-371.437,303.187a1.207,1.207,0,0,0,.75,1.116,1.207,1.207,0,0,0-.75,1.116,1.211,1.211,0,0,0,1.205,1.206h0a3.456,3.456,0,0,1,3.44,3.438,1.211,1.211,0,0,0,1.205,1.206,1.211,1.211,0,0,0,1.205-1.206A5.877,5.877,0,0,0-369.2,304.3a5.877,5.877,0,0,0,4.822-5.759,1.211,1.211,0,0,0-1.205-1.206,1.211,1.211,0,0,0-1.205,1.206,3.459,3.459,0,0,1-3.438,3.438h-.005a1.211,1.211,0,0,0-1.205,1.206Z" transform="translate(455.201 -227.615)"/><path class="b" d="M-714.7,374.576a5.987,5.987,0,0,0,4.576,2.126,1.392,1.392,0,0,0,1.386-1.386,1.392,1.392,0,0,0-1.386-1.386,3.244,3.244,0,0,1-3.179-2.666c.016-.186.028-.374.028-.554a3.714,3.714,0,0,0-.028-.554,3.244,3.244,0,0,1,3.179-2.666,1.392,1.392,0,0,0,1.386-1.385,1.392,1.392,0,0,0-1.386-1.386,5.991,5.991,0,0,0-4.576,2.123,6,6,0,0,0-4.578-2.123,1.392,1.392,0,0,0-1.386,1.386,1.392,1.392,0,0,0,1.386,1.385,3.241,3.241,0,0,1,3.179,2.666c-.017.186-.028.374-.028.554a3.68,3.68,0,0,0,.028.554,3.241,3.241,0,0,1-3.179,2.666,1.392,1.392,0,0,0-1.386,1.386,1.392,1.392,0,0,0,1.386,1.386A6,6,0,0,0-714.7,374.576Z" transform="translate(720.663 -279.053)"/><path class="b" d="M-575.753,285.951l-48.9.016c-1.257,1.036-.5,2.411.551,2.411l48.312-.015a1.23,1.23,0,0,0,1.207-.927A1.21,1.21,0,0,0-575.753,285.951Z" transform="translate(647.561 -218.738)"/><path class="b" d="M-575.753,375.062l-48.9.016c-1.257,1.036-.5,2.411.551,2.41l48.312-.015a1.229,1.229,0,0,0,1.207-.926A1.21,1.21,0,0,0-575.753,375.062Z" transform="translate(647.561 -286.823)"/><path class="b" d="M-601.526,405.137l-23.124.016c-1.257,1.036-.5,2.411.551,2.41l22.54-.015a1.229,1.229,0,0,0,1.207-.926A1.21,1.21,0,0,0-601.526,405.137Z" transform="translate(648.057 -309.415)"/><path class="b" d="M-575.733,315.66l-48.9.016c-1.257,1.036-.5,2.411.551,2.41l48.312-.015a1.229,1.229,0,0,0,1.207-.927A1.21,1.21,0,0,0-575.733,315.66Z" transform="translate(647.545 -241.267)"/><path class="b" d="M-575.712,345.292l-48.9.016c-1.257,1.036-.5,2.411.551,2.41l48.312-.015a1.229,1.229,0,0,0,1.207-.926A1.21,1.21,0,0,0-575.712,345.292Z" transform="translate(647.53 -263.737)"/><path class="b" d="M-503.865,248.415a1.211,1.211,0,0,0-1.205,1.205,1.211,1.211,0,0,0,1.205,1.205h18.471a1.211,1.211,0,0,0,1.205-1.205,1.211,1.211,0,0,0-1.205-1.205Z" transform="translate(556.623 -190.274)"/><path class="b" d="M-590.531,55.472a1.166,1.166,0,0,0,1.149-1.172V40.7a5.553,5.553,0,0,0-5.466-5.573h-5.627l1.165-4.174a.819.819,0,0,0,.133,0,1.155,1.155,0,0,0,1.106-.851l3.475-12.458a2.5,2.5,0,0,1,.637,2.435l-3.657,13.1a1.194,1.194,0,0,0-.044.321,1.166,1.166,0,0,0,1.149,1.172,1.156,1.156,0,0,0,1.106-.851l3.657-13.1a4.846,4.846,0,0,0-2.179-5.472,5.921,5.921,0,0,0,.217-1.589,5.78,5.78,0,0,0-5.7-5.807,5.727,5.727,0,0,0-5.479,4.218,1.2,1.2,0,0,0-.045.326,1.166,1.166,0,0,0,1.149,1.172,1.155,1.155,0,0,0,1.107-.858,3.414,3.414,0,0,1,3.259-2.483,3.447,3.447,0,0,1,3.4,3.464,3.527,3.527,0,0,1-.121.916l-3.831,13.737-6.537-1.9,2.2-7.874a1.191,1.191,0,0,0,.044-.321,1.166,1.166,0,0,0-1.149-1.172,1.155,1.155,0,0,0-1.106.851l-2.51,9a1.183,1.183,0,0,0,.618,1.378l0,0-1.9,6.815h-37.465A5.553,5.553,0,0,0-653.24,40.7v70.108a5.551,5.551,0,0,0,5.466,5.573h52.927a5.551,5.551,0,0,0,5.466-5.573V63.658a1.166,1.166,0,0,0-1.149-1.172,1.166,1.166,0,0,0-1.149,1.172v47.147a3.216,3.216,0,0,1-3.167,3.229h-52.925a3.216,3.216,0,0,1-3.167-3.229V44.346h7.279a1.1,1.1,0,0,0,.37-.068,1.105,1.105,0,0,0,.37.068h30.039l-3.326,11.919a1.208,1.208,0,0,0-.025.537l1.379,7.543a1.166,1.166,0,0,0,.786.9,1.168,1.168,0,0,0,.343.054,1.138,1.138,0,0,0,.816-.347l5.5-5.542a1.177,1.177,0,0,0,.3-.513l4.064-14.56h11.366V54.3A1.166,1.166,0,0,0-590.531,55.472ZM-642.92,42a1.105,1.105,0,0,0-.37.069,1.1,1.1,0,0,0-.37-.069h-7.279V40.7a3.216,3.216,0,0,1,3.167-3.229h36.81L-612.228,42Zm29.935,19.741-.69-3.7,3.379.979Zm4.025-4.771-4.684-1.357,7.436-26.645,2.338.677,2.34.677ZM-602.382,42l1.266-4.534h6.268A3.216,3.216,0,0,1-591.68,40.7V42Z" transform="translate(670.014 -7.849)"/><path class="c" d="M-430.926,130.322a3.34,3.34,0,0,1,3.322,3.322v1.343h-11.225l1.328-4.665Z" transform="translate(506.514 -100.74)"/><path class="d" d="M-635.13,134.987a1.179,1.179,0,0,0-.388.071,1.178,1.178,0,0,0-.388-.071h-7.635v-1.343a3.341,3.341,0,0,1,3.322-3.322h38.609l-1.328,4.665Z" transform="translate(661.718 -100.741)"/><path class="e" d="M-485.713,219.207l-.723-3.807,3.544,1.008Z" transform="translate(542.847 -165.258)"/><g transform="translate(24.679 39.518)"><path class="b" d="M-594.625,184.62a6.008,6.008,0,0,0,6.011-6.011,6.03,6.03,0,0,0-6.011-6.037,6.03,6.03,0,0,0-6.01,6.037A6.008,6.008,0,0,0-594.625,184.62Zm0-9.807a3.825,3.825,0,0,1,3.822,3.822,3.825,3.825,0,0,1-3.822,3.822,3.825,3.825,0,0,1-3.822-3.822A3.825,3.825,0,0,1-594.625,174.814Z" transform="translate(604.826 -172.573)"/><path class="b" d="M-606.885,223.009h-.817a9.777,9.777,0,0,0-9.78,9.78v1.977h2.214v-1.977a7.583,7.583,0,0,1,7.566-7.566h.817a7.583,7.583,0,0,1,7.566,7.566v1.977h2.214v-1.977A9.76,9.76,0,0,0-606.885,223.009Z" transform="translate(617.482 -210.461)"/></g></g></svg>