<svg xmlns="http://www.w3.org/2000/svg" xmlns:xlink="http://www.w3.org/1999/xlink" width="120" height="120" viewBox="0 0 120 120"><defs><style>.a{fill:rgba(255,255,255,0);}.b{fill:#002b59;}.c{fill:url(#a);}.d{fill:url(#b);}.e{fill:url(#c);}</style><linearGradient id="a" x1="0.126" y1="0.791" x2="0.748" y2="0.448" gradientUnits="objectBoundingBox"><stop offset="0" stop-color="#00dcff"/><stop offset="1" stop-color="#636efe"/></linearGradient><linearGradient id="b" x1="0.115" y1="1.23" x2="0.85" y2="-0.044" xlink:href="#a"/><linearGradient id="c" x1="0.1" y1="1.567" x2="0.922" y2="0.017" xlink:href="#a"/></defs><rect class="a" width="120" height="120"/><g transform="translate(6.156 13.191)"><g transform="translate(20.831 30.518)"><path class="b" d="M-579.134-331.3a10.554,10.554,0,0,0-3.421.569l-.689-1.243a11.987,11.987,0,0,1,4.108-.726,12.029,12.029,0,0,1,5.59,1.377,1.378,1.378,0,0,0,1.861-.577,1.375,1.375,0,0,0-.576-1.86,14.787,14.787,0,0,0-6.874-1.7,14.808,14.808,0,0,0-5.461,1.046l-.418-.755c.223.046.449.087.685.124a1.411,1.411,0,0,0,.213.015,1.382,1.382,0,0,0,.9-.33,1.379,1.379,0,0,0,.481-1.048v-5.131a1.376,1.376,0,0,0-.481-1.046,1.378,1.378,0,0,0-1.109-.315c-2.879.452-4.793,1.538-5.366,2.987l-.56.136a4.948,4.948,0,0,0-1.567-1.9h0a5.732,5.732,0,0,0-1.021-.586c-1.951-.874-4.9-.992-9.3-.369-4.957.7-10.152,2.049-11.111,6.709l-.261,1.323h-2.038c-4.225,0-7.688-1.3-9.5-3.564a1.377,1.377,0,0,0-1.937-.215,1.367,1.367,0,0,0-.274,1.844,15.963,15.963,0,0,0-1.6-.083,15.821,15.821,0,0,0-7.789,2.048,1.377,1.377,0,0,0-.518,1.877,1.378,1.378,0,0,0,1.878.521,13.051,13.051,0,0,1,6.43-1.69,13.1,13.1,0,0,1,4.645.847l-1.106,2.209a10.568,10.568,0,0,0-3.539-.611A10.616,10.616,0,0,0-639.467-320.8a10.615,10.615,0,0,0,10.605,10.6,10.619,10.619,0,0,0,10.354-8.334l3.045,1.33a1.356,1.356,0,0,0,.55.115l14.259,0a6.068,6.068,0,0,0,5.318-3.863L-592-328.2a1.366,1.366,0,0,0,.024-1.087,1.359,1.359,0,0,0-.768-.767l-1.647-.656a1.375,1.375,0,0,0-1.789.77,1.376,1.376,0,0,0,.769,1.79l.3.12s-2.791,6.1-2.811,6.145a3.226,3.226,0,0,1-2.731,2.051l-13.972,0-3.652-1.594a10.609,10.609,0,0,0-4.591-8.109l1.108-2.215a12.99,12.99,0,0,1,5.875,9.553,1.379,1.379,0,0,0,1.369,1.231l12.674-.008a3.494,3.494,0,0,0,3.49-3.487,3.487,3.487,0,0,0-2.8-3.421s-7.893-2.052-7.944-2.06a4.516,4.516,0,0,0-.884-.088,4.477,4.477,0,0,0-1.653.316l.409-2.13h20.349a1.378,1.378,0,0,0,1.376-1.367l.023-3.053c0-.035,0-.073,0-.109-.016-.238-.039-.479-.065-.722l.274-.067,2.229,4.024a14.878,14.878,0,0,0-3.438,3.022,1.381,1.381,0,0,0,.178,1.942,1.37,1.37,0,0,0,.879.319,1.371,1.371,0,0,0,1.06-.5,12.1,12.1,0,0,1,2.661-2.371l.682,1.23a10.6,10.6,0,0,0-4.712,8.811,10.616,10.616,0,0,0,10.6,10.605,10.617,10.617,0,0,0,10.606-10.605A10.617,10.617,0,0,0-579.134-331.3Zm-49.729,18.347a7.861,7.861,0,0,1-7.851-7.851,7.859,7.859,0,0,1,7.851-7.849,7.773,7.773,0,0,1,2.3.343l-1.336,2.67-3.757-1.642-1.1,2.526.788.344a4.763,4.763,0,0,0-1.659,3.608,4.775,4.775,0,0,0,4.77,4.768A4.775,4.775,0,0,0-624.1-320.8c0-.059-.006-.113-.009-.171l3.005,1.312A7.858,7.858,0,0,1-628.863-312.954Zm2.012-7.849a2.015,2.015,0,0,1-2.012,2.012,2.015,2.015,0,0,1-2.013-2.012,2.017,2.017,0,0,1,2.013-2.015A2.016,2.016,0,0,1-626.852-320.8Zm5.6-1.935-4.119-1.8,1.257-2.513A7.875,7.875,0,0,1-621.256-322.738Zm6.478-5.259a15.715,15.715,0,0,0-2.853-3.94c.675.065,1.368.1,2.079.1h1.508Zm4.789.711a1.7,1.7,0,0,1,.391.046.445.445,0,0,1,.049.01l7.739,2.013a.879.879,0,0,0,.1.021.732.732,0,0,1,.6.722.733.733,0,0,1-.734.733h-8.144a1.774,1.774,0,0,1-1.772-1.772A1.775,1.775,0,0,1-609.989-327.286Zm17.736-7.326h-18.454s.134-.652.153-.748c.491-2.374,3.122-3.731,8.8-4.536,3.8-.538,6.347-.488,7.786.154a3.034,3.034,0,0,1,.526.3h0a2.227,2.227,0,0,1,.376.346l-2.536.614a1.379,1.379,0,0,0-1.014,1.663,1.378,1.378,0,0,0,1.664,1.015l2.7-.653c.006.07.015.14.02.213Zm6.763-3.517a3.677,3.677,0,0,1-1.594-.839,3.675,3.675,0,0,1,1.594-.84Zm6.355,25.284a7.859,7.859,0,0,1-7.849-7.851,7.849,7.849,0,0,1,3.3-6.389l1.51,2.722A4.758,4.758,0,0,0-583.9-320.7a4.773,4.773,0,0,0,4.766,4.77,4.773,4.773,0,0,0,4.769-4.77,4.773,4.773,0,0,0-4.769-4.768c-.165,0-.325.01-.485.024l-1.57-2.831a7.891,7.891,0,0,1,2.055-.275,7.858,7.858,0,0,1,7.851,7.849A7.859,7.859,0,0,1-579.134-312.846Zm0-9.863a2.016,2.016,0,0,1,2.015,2.012,2.015,2.015,0,0,1-2.015,2.013,2.015,2.015,0,0,1-2.013-2.013A2.016,2.016,0,0,1-579.134-322.709Z" transform="translate(639.467 343.016)"/><g transform="translate(14.092 2.751)"><path class="c" d="M-586.785-283.68l-4.119-1.8,1.257-2.513A7.875,7.875,0,0,1-586.785-283.68Z" transform="translate(590.904 301.208)"/><path class="d" d="M-542.215-288.808a1.7,1.7,0,0,1,.391.046.449.449,0,0,1,.049.01l7.739,2.013a.868.868,0,0,0,.1.021.732.732,0,0,1,.6.722.733.733,0,0,1-.734.733h-8.144a1.774,1.774,0,0,1-1.772-1.772A1.775,1.775,0,0,1-542.215-288.808Z" transform="translate(557.602 301.787)"/><path class="e" d="M-521.9-327.883h-18.454s.134-.652.153-.748c.491-2.375,3.122-3.731,8.8-4.536,3.8-.538,6.347-.488,7.786.154a3.035,3.035,0,0,1,.526.3h0a2.229,2.229,0,0,1,.376.346l-2.536.614a1.379,1.379,0,0,0-1.014,1.663,1.378,1.378,0,0,0,1.664,1.015l2.7-.653c.006.07.015.14.02.213Z" transform="translate(555.02 333.536)"/></g></g><path class="b" d="M-701.759-419.488a1.426,1.426,0,0,0,.543.107,1.454,1.454,0,0,0,1.355-.911,52.753,52.753,0,0,1,32.755-30.553,1.454,1.454,0,0,0,1.056-1.4,1.458,1.458,0,0,0-1.451-1.451,1.455,1.455,0,0,0-.5.087,55.64,55.64,0,0,0-34.566,32.23A1.458,1.458,0,0,0-701.759-419.488Z" transform="translate(708.278 453.691)"/><path class="b" d="M-366.311-175a8.006,8.006,0,0,0-7.959,7.96,1.458,1.458,0,0,0,1.451,1.451,1.458,1.458,0,0,0,1.451-1.451,5.087,5.087,0,0,1,5.058-5.058,1.458,1.458,0,0,0,1.451-1.451A1.458,1.458,0,0,0-366.311-175Z" transform="translate(472.054 252.749)"/><path class="b" d="M-366.311-201.731a5.087,5.087,0,0,1-5.058-5.058,1.458,1.458,0,0,0-1.451-1.451,1.458,1.458,0,0,0-1.451,1.451,8.006,8.006,0,0,0,7.959,7.959,1.458,1.458,0,0,0,1.451-1.451A1.458,1.458,0,0,0-366.311-201.731Z" transform="translate(472.054 276.888)"/><path class="b" d="M-407.769-175a1.458,1.458,0,0,0-1.451,1.451,1.458,1.458,0,0,0,1.451,1.451,5.087,5.087,0,0,1,5.058,5.058,1.458,1.458,0,0,0,1.451,1.451,1.458,1.458,0,0,0,1.451-1.451A8.006,8.006,0,0,0-407.769-175Z" transform="translate(496.862 252.749)"/><path class="b" d="M-401.261-208.24a1.458,1.458,0,0,0-1.451,1.451,5.087,5.087,0,0,1-5.058,5.058,1.458,1.458,0,0,0-1.451,1.451,1.458,1.458,0,0,0,1.451,1.451,8.006,8.006,0,0,0,7.959-7.959A1.458,1.458,0,0,0-401.261-208.24Z" transform="translate(496.862 276.888)"/><path class="b" d="M-716.964-311.046l-.354.017-.017-.354a1.459,1.459,0,0,0-1.451-1.383,1.46,1.46,0,0,0-1.453,1.453q0,.035,0,.07v.354l-.351.017a1.458,1.458,0,0,0-1.418,1.451,1.458,1.458,0,0,0,1.451,1.451h.106l.351-.017.017.354a1.457,1.457,0,0,0,1.451,1.381h.073a1.458,1.458,0,0,0,1.378-1.518l-.017-.354.354-.017a1.459,1.459,0,0,0,1.383-1.451,1.46,1.46,0,0,0-1.453-1.453l-.07,0Z" transform="translate(722.006 352.228)"/><path class="b" d="M-696.519-433.8a1.458,1.458,0,0,0,2.049-.1,1.45,1.45,0,0,0,.378-.976,1.452,1.452,0,0,0-.476-1.075l-1.535-1.393,1.393-1.535a1.451,1.451,0,0,0,.378-.976,1.458,1.458,0,0,0-1.451-1.451,1.451,1.451,0,0,0-1.074.475l-1.4,1.538-1.535-1.4a1.452,1.452,0,0,0-1.006-.405,1.458,1.458,0,0,0-1.451,1.451,1.452,1.452,0,0,0,.507,1.1l1.535,1.387-1.39,1.544a1.452,1.452,0,0,0-.294.875,1.458,1.458,0,0,0,1.451,1.451,1.451,1.451,0,0,0,.987-.387l1.393-1.535Z" transform="translate(707.98 444.9)"/><path class="b" d="M-666.232-134h-5.017a1.458,1.458,0,0,0-1.451,1.451,1.458,1.458,0,0,0,1.451,1.451h5.017a1.458,1.458,0,0,0,1.451-1.451A1.458,1.458,0,0,0-666.232-134Z" transform="translate(687.007 223.646)"/><path class="b" d="M-488.952-420.933a1.453,1.453,0,0,0-.394-.054,1.458,1.458,0,0,0-1.451,1.451,1.455,1.455,0,0,0,1.119,1.412A40.705,40.705,0,0,1-459.258-378.8a41.051,41.051,0,0,1-.31,5.037,1.458,1.458,0,0,0,1.262,1.616,1.246,1.246,0,0,0,.18,0,1.456,1.456,0,0,0,1.451-1.274,44.45,44.45,0,0,0,.331-5.391A43.611,43.611,0,0,0-488.952-420.933Z" transform="translate(554.767 430.477)"/><path class="b" d="M-677.476-382.064a43.342,43.342,0,0,0,2.429,14.369h-3.192a1.458,1.458,0,0,0-1.451,1.451,1.458,1.458,0,0,0,1.451,1.451h10.76a1.458,1.458,0,0,0,1.451-1.451,1.458,1.458,0,0,0-1.451-1.451h-4.489a.115.115,0,0,0-.026-.087,40.5,40.5,0,0,1-2.58-14.282,40.671,40.671,0,0,1,40.624-40.625,1.458,1.458,0,0,0,1.451-1.451,1.458,1.458,0,0,0-1.451-1.451A43.579,43.579,0,0,0-677.476-382.064Z" transform="translate(691.969 433.744)"/><path class="b" d="M-645.6-176.108a40.813,40.813,0,0,1-9.764,1.178A40.388,40.388,0,0,1-685.3-188.1h4.477a1.458,1.458,0,0,0,1.451-1.451A1.458,1.458,0,0,0-680.823-191h-27.567a1.458,1.458,0,0,0-1.451,1.451,1.458,1.458,0,0,0,1.451,1.451h19.247a43.314,43.314,0,0,0,33.77,16.073,43.751,43.751,0,0,0,10.484-1.274,1.455,1.455,0,0,0,1.113-1.411,1.458,1.458,0,0,0-1.451-1.451,1.452,1.452,0,0,0-.355.044Z" transform="translate(713.37 264.106)"/></g></svg>