<svg xmlns="http://www.w3.org/2000/svg" xmlns:xlink="http://www.w3.org/1999/xlink" width="120" height="120.002" viewBox="0 0 120 120.002"><defs><style>.a{fill:rgba(255,255,255,0);}.b{fill:url(#a);}.c{fill:#002b59;}.d{fill:url(#b);}</style><linearGradient id="a" x1="-0.083" y1="0.85" x2="1.083" y2="0.15" gradientUnits="objectBoundingBox"><stop offset="0" stop-color="#00dcff"/><stop offset="1" stop-color="#636efe"/></linearGradient><linearGradient id="b" x1="0.067" y1="0.699" x2="0.912" y2="0.372" xlink:href="#a"/></defs><rect class="a" width="120" height="120" transform="translate(0 0)"/><g transform="translate(10.553 9.674)"><rect class="b" width="51.411" height="49.508" transform="translate(21.133 44.141)"/><path class="c" d="M-368.641,941.487a1.594,1.594,0,0,0-2.244,0l-1.949,1.949-1.952-1.949a1.587,1.587,0,0,0-1.1-.445,1.6,1.6,0,0,0-1.587,1.587,1.588,1.588,0,0,0,.446,1.1l1.949,1.949-1.949,1.948a1.587,1.587,0,0,0-.446,1.1,1.6,1.6,0,0,0,1.587,1.587,1.588,1.588,0,0,0,1.1-.445l1.949-1.949,1.949,1.949a1.588,1.588,0,0,0,1.141.484,1.594,1.594,0,0,0,1.587-1.587,1.588,1.588,0,0,0-.484-1.141l-1.949-1.948,1.949-1.949A1.6,1.6,0,0,0-368.641,941.487Z" transform="translate(466.556 -840.028)"/><path class="c" d="M-376.323,625.074a5.383,5.383,0,0,0,5.357-5.357,5.383,5.383,0,0,0-5.357-5.357,5.383,5.383,0,0,0-5.357,5.357A5.386,5.386,0,0,0-376.323,625.074Zm0-7.537a2.194,2.194,0,0,1,2.183,2.183,2.194,2.194,0,0,1-2.183,2.183,2.194,2.194,0,0,1-2.183-2.183v0A2.194,2.194,0,0,1-376.323,617.537Z" transform="translate(469.427 -613.912)"/><path class="c" d="M-650.633,878.733a2.927,2.927,0,0,0-2.913-2.913,2.927,2.927,0,0,0-2.913,2.913,2.927,2.927,0,0,0,2.913,2.913A2.927,2.927,0,0,0-650.633,878.733Z" transform="translate(660.125 -794.814)"/><path class="c" d="M-643.064,705.976v-9.389a1.544,1.544,0,0,0-1.537-1.537,1.544,1.544,0,0,0-1.537,1.537v11.458a1.544,1.544,0,0,0,1.537,1.534l49.661-.009a1.544,1.544,0,0,0,1.537-1.537V673.166A22.933,22.933,0,0,0-572.143,650.4a22.985,22.985,0,0,0-21.665-22.787,27.957,27.957,0,0,0-37.22-11.639,1.539,1.539,0,0,0-.835,1.368,1.545,1.545,0,0,0,1.537,1.538,1.538,1.538,0,0,0,.7-.17,24.747,24.747,0,0,1,11.281-2.721,24.784,24.784,0,0,1,22.2,13.814,1.539,1.539,0,0,0,1.365.858,19.83,19.83,0,0,1,19.584,19.74,19.817,19.817,0,0,1-18.225,19.682v-3.87h4.9a1.544,1.544,0,0,0,1.537-1.537v-8.015a1.544,1.544,0,0,0-1.537-1.537h-63.569a1.544,1.544,0,0,0-1.537,1.537v8.015a1.544,1.544,0,0,0,1.537,1.537h5.95v2.435a15.716,15.716,0,0,1-3.09.307,15.783,15.783,0,0,1-15.706-15.71,15.783,15.783,0,0,1,15.706-15.71,15.7,15.7,0,0,1,4.489.655,1.535,1.535,0,0,0,.443.065,1.542,1.542,0,0,0,1.518-1.3,24.765,24.765,0,0,1,4.242-10.5,1.538,1.538,0,0,0,.314-.931A1.544,1.544,0,0,0-639.76,624a1.538,1.538,0,0,0-1.285.694,27.823,27.823,0,0,0-4.466,10.145,18.782,18.782,0,0,0-3.718-.372,18.871,18.871,0,0,0-18.779,18.784,18.871,18.871,0,0,0,18.779,18.784,18.771,18.771,0,0,0,3.1-.258v8.414a1.544,1.544,0,0,0,1.537,1.537,1.544,1.544,0,0,0,1.537-1.537V658.2h46.56v47.855Zm-3.073-42.835h-4.414V658.2h4.414Zm56.082-4.94v4.94h-3.362V658.2Z" transform="translate(668.008 -612.95)"/><path class="c" d="M-533.567,786.89h-33.5a1.594,1.594,0,0,0-1.587,1.587,1.594,1.594,0,0,0,1.587,1.587h33.5a1.594,1.594,0,0,0,1.587-1.587A1.594,1.594,0,0,0-533.567,786.89Z" transform="translate(598.666 -733.25)"/><path class="c" d="M-568.73,814.587a1.594,1.594,0,0,0,1.587,1.587h33.373a1.594,1.594,0,0,0,1.587-1.587A1.594,1.594,0,0,0-533.771,813h-33.373A1.594,1.594,0,0,0-568.73,814.587Z" transform="translate(598.725 -751.308)"/><path class="c" d="M-567.143,842.173h33.373a1.594,1.594,0,0,0,1.587-1.587A1.594,1.594,0,0,0-533.771,839h-33.373a1.594,1.594,0,0,0-1.587,1.587A1.594,1.594,0,0,0-567.143,842.173Z" transform="translate(598.725 -769.291)"/><path class="c" d="M-567.143,868.264h33.373a1.594,1.594,0,0,0,1.587-1.587,1.594,1.594,0,0,0-1.587-1.587h-33.373a1.594,1.594,0,0,0-1.587,1.587A1.594,1.594,0,0,0-567.143,868.264Z" transform="translate(598.725 -787.335)"/><path class="c" d="M-537.135,676.593h7.594a1.594,1.594,0,0,0,1.587-1.587v-8.042h3.808a1.594,1.594,0,0,0,1.587-1.587,1.586,1.586,0,0,0-.317-.952l-9.628-13.012a1.588,1.588,0,0,0-1.311-.635,1.588,1.588,0,0,0-1.269.7l-8.746,13.012a1.587,1.587,0,0,0-.27.885,1.594,1.594,0,0,0,1.587,1.587h3.809v8.042A1.594,1.594,0,0,0-537.135,676.593Zm-2.412-12.8,5.833-8.68,6.417,8.68h-2.244a1.594,1.594,0,0,0-1.587,1.587v8.042h-4.421v-8.042a1.594,1.594,0,0,0-1.587-1.587Z" transform="translate(581.89 -638.773)"/><path class="d" d="M-529.75,673.11l5.833-8.68,6.417,8.68h-2.244a1.594,1.594,0,0,0-1.587,1.587v8.042h-4.421V674.7a1.594,1.594,0,0,0-1.587-1.587Z" transform="translate(572.094 -648.092)"/></g></svg>